<svg id="visual" viewBox="0 0 900 600" width="900" height="600" xmlns="http://www.w3.org/2000/svg" xmlns:xlink="http://www.w3.org/1999/xlink" version="1.1"><rect x="0" y="0" width="900" height="600" fill="#fafafa"></rect><path d="M545 0L649 0L649 86L566 86L566 171L577 171L577 257L513 257L513 343L415 343L415 429L670 429L670 514L701 514L701 600L0 600L0 514L0 514L0 429L0 429L0 343L0 343L0 257L0 257L0 171L0 171L0 86L0 86L0 0L0 0Z" fill="#80e192"></path><path d="M508 0L420 0L420 86L473 86L473 171L358 171L358 257L409 257L409 343L528 343L528 429L301 429L301 514L374 514L374 600L0 600L0 514L0 514L0 429L0 429L0 343L0 343L0 257L0 257L0 171L0 171L0 86L0 86L0 0L0 0Z" fill="#6bdf80"></path><path d="M317 0L146 0L146 86L302 86L302 171L200 171L200 257L312 257L312 343L245 343L245 429L90 429L90 514L151 514L151 600L0 600L0 514L0 514L0 429L0 429L0 343L0 343L0 257L0 257L0 171L0 171L0 86L0 86L0 0L0 0Z" fill="#53dd6c"></path></svg>